<svg id="Layer_1" data-name="Layer 1" xmlns="http://www.w3.org/2000/svg" viewBox="0 0 128 128"><title>CONSTRUCTION</title><path d="M28.244,31.931h32a1.75,1.75,0,0,0,1.75-1.75V21.59a1.75,1.75,0,0,0-1.75-1.75h-32a1.75,1.75,0,0,0-1.75,1.75v8.59A1.75,1.75,0,0,0,28.244,31.931Zm1.75-8.59h28.5v5.09h-28.5Z"/><path d="M28,52.729H38.455a1.75,1.75,0,0,0,1.75-1.75V40.524a1.75,1.75,0,0,0-1.75-1.75H28a1.75,1.75,0,0,0-1.75,1.75V50.979A1.75,1.75,0,0,0,28,52.729Zm1.75-10.454h6.954v6.954H29.751Z"/><path d="M60.244,38.774H49.79a1.75,1.75,0,0,0-1.75,1.75V50.979a1.75,1.75,0,0,0,1.75,1.75H60.244a1.75,1.75,0,0,0,1.75-1.75V40.524A1.75,1.75,0,0,0,60.244,38.774Zm-1.75,10.454H51.54V42.274h6.954Z"/><path d="M38.455,71.9a1.75,1.75,0,0,0,1.75-1.75V59.691a1.75,1.75,0,0,0-1.75-1.75H28a1.75,1.75,0,0,0-1.75,1.75V70.145A1.75,1.75,0,0,0,28,71.9Zm-8.7-10.454h6.954V68.4H29.751Z"/><path d="M60.244,57.941H49.79a1.75,1.75,0,0,0-1.75,1.75V70.145a1.75,1.75,0,0,0,1.75,1.75H60.244a1.75,1.75,0,0,0,1.75-1.75V59.691A1.75,1.75,0,0,0,60.244,57.941ZM58.494,68.4H51.54V61.441h6.954Z"/><path d="M115,113.25H100.295v-5.125h8.128a1.75,1.75,0,0,0,1.75-1.75V97.75a1.75,1.75,0,0,0-1.75-1.75h-8.128V89.125a1.75,1.75,0,0,0-1.75-1.75H90.417V80.5a1.75,1.75,0,0,0-1.75-1.75H70.661V13a1.75,1.75,0,0,0-1.75-1.75H19.577A1.75,1.75,0,0,0,17.827,13V113.25H13a1.75,1.75,0,0,0,0,3.5H115a1.75,1.75,0,0,0,0-3.5Zm-8.327-8.625H90.417V99.5h16.256Zm-36.012,0V99.5H86.917v5.125ZM77.039,96H70.661V90.875h6.378Zm-6.378,12.125h6.378v5.125H70.661ZM96.795,96H80.539V90.875H96.795ZM86.917,82.25v5.125H70.661V82.25Zm-65.59-67.5H67.161v98.5H56.827V83.329a1.75,1.75,0,0,0-1.75-1.75H33.411a1.75,1.75,0,0,0-1.75,1.75V113.25H21.327Zm32,98.5H35.161V85.079H53.327Zm27.212,0v-5.125H96.795v5.125Z"/></svg>