<svg id="Layer_1" data-name="Layer 1" xmlns="http://www.w3.org/2000/svg" viewBox="0 0 128 128"><title>AGENDA</title><path d="M39.077,43.635h41a1.75,1.75,0,0,0,1.75-1.75V24.192a1.75,1.75,0,0,0-1.75-1.75h-41a1.75,1.75,0,0,0-1.75,1.75V41.885A1.75,1.75,0,0,0,39.077,43.635Zm1.75-17.692h37.5V40.135h-37.5Z"/><path d="M121.5,31.942a1.75,1.75,0,0,0,1.75-1.75v-12a1.75,1.75,0,0,0-1.75-1.75h-7.1V6.5a1.75,1.75,0,0,0-1.75-1.75H6.5A1.75,1.75,0,0,0,4.75,6.5v115a1.75,1.75,0,0,0,1.75,1.75H112.654a1.75,1.75,0,0,0,1.75-1.75V67.942h7.1a1.75,1.75,0,0,0,1.75-1.75v-12a1.75,1.75,0,0,0-1.75-1.75h-7.1v-2.5h7.1a1.75,1.75,0,0,0,1.75-1.75v-12a1.75,1.75,0,0,0-1.75-1.75h-7.1v-2.5Zm-1.75-12v8.5H114.4v-8.5ZM110.9,119.75H8.25V8.25H110.9v111.5Zm8.846-63.808v8.5H114.4v-8.5Zm0-18v8.5H114.4v-8.5Z"/><path d="M88.327,81.583h-57.5a1.75,1.75,0,0,0,0,3.5h57.5a1.75,1.75,0,0,0,0-3.5Z"/><path d="M88.327,92.25h-57.5a1.75,1.75,0,0,0,0,3.5h57.5a1.75,1.75,0,0,0,0-3.5Z"/><path d="M88.327,102.917h-57.5a1.75,1.75,0,1,0,0,3.5h57.5a1.75,1.75,0,0,0,0-3.5Z"/><path d="M12.5,10.75a1.75,1.75,0,0,0-1.75,1.75V33.039a1.75,1.75,0,0,0,3.5,0V12.5A1.75,1.75,0,0,0,12.5,10.75Z"/></svg>